<svg width="20" height="20" viewBox="0 0 20 20" fill="none" xmlns="http://www.w3.org/2000/svg">
<path d="M12.5 15.8334V14.1667C12.5 13.5036 12.2366 12.8678 11.7678 12.3989C11.2989 11.9301 10.663 11.6667 10 11.6667C9.33696 11.6667 8.70107 11.9301 8.23223 12.3989C7.76339 12.8678 7.5 13.5036 7.5 14.1667V15.8334C7.5 16.0544 7.4122 16.2663 7.25592 16.4226C7.09964 16.5789 6.88768 16.6667 6.66667 16.6667H3.33333C3.11232 16.6667 2.90036 16.5789 2.74408 16.4226C2.5878 16.2663 2.5 16.0544 2.5 15.8334V4.16669H5.83333V6.66669H8.33333V4.16669H11.6667V6.66669H14.1667V4.16669H17.5V15.8334C17.5 16.0544 17.4122 16.2663 17.2559 16.4226C17.0996 16.5789 16.8877 16.6667 16.6667 16.6667H13.3333C13.1123 16.6667 12.9004 16.5789 12.7441 16.4226C12.5878 16.2663 12.5 16.0544 12.5 15.8334Z" stroke="white" stroke-opacity="0.75" stroke-width="2" stroke-linecap="round" stroke-linejoin="round"/>
<path d="M2.5 9.16669H17.5" stroke="white" stroke-opacity="0.75" stroke-width="2" stroke-linecap="round" stroke-linejoin="round"/>
</svg>
