<svg width="18" height="18" viewBox="0 0 18 18" fill="none" xmlns="http://www.w3.org/2000/svg">
<path d="M2.25 15.75H5.25L15 5.99998C15.3978 5.60216 15.6213 5.06259 15.6213 4.49998C15.6213 3.93737 15.3978 3.39781 15 2.99998C14.6022 2.60216 14.0626 2.37866 13.5 2.37866C12.9374 2.37866 12.3978 2.60216 12 2.99998L2.25 12.75V15.75Z" stroke="white" stroke-opacity="0.75" stroke-width="1.35" stroke-linecap="round" stroke-linejoin="round"/>
<path d="M10.875 4.125L13.875 7.125" stroke="white" stroke-opacity="0.75" stroke-width="1.35" stroke-linecap="round" stroke-linejoin="round"/>
<path d="M9 6L5.25 2.25L2.25 5.25L6 9" stroke="white" stroke-opacity="0.75" stroke-width="1.35" stroke-linecap="round" stroke-linejoin="round"/>
<path d="M5.25 6L4.125 7.125" stroke="white" stroke-opacity="0.75" stroke-width="1.35" stroke-linecap="round" stroke-linejoin="round"/>
<path d="M12 9L15.75 12.75L12.75 15.75L9 12" stroke="white" stroke-opacity="0.75" stroke-width="1.35" stroke-linecap="round" stroke-linejoin="round"/>
<path d="M12 12.75L10.875 13.875" stroke="white" stroke-opacity="0.75" stroke-width="1.35" stroke-linecap="round" stroke-linejoin="round"/>
</svg>
