<svg width="40" height="40" viewBox="0 0 40 40" fill="none" xmlns="http://www.w3.org/2000/svg">
<rect width="40" height="40" rx="20" fill="#F4D2DE"/>
<path d="M25.5003 15.4167H14.5003C14.0141 15.4167 13.5478 15.6098 13.204 15.9537C12.8601 16.2975 12.667 16.7638 12.667 17.25V25.5C12.667 25.7431 12.7636 25.9763 12.9355 26.1482C13.1074 26.3201 13.3405 26.4167 13.5837 26.4167H15.417C15.6601 26.4167 15.8933 26.3201 16.0652 26.1482C16.2371 25.9763 16.3337 25.7431 16.3337 25.5V23.6667C16.3337 22.6942 16.72 21.7616 17.4076 21.074C18.0952 20.3863 19.0279 20 20.0003 20C20.9728 20 21.9054 20.3863 22.5931 21.074C23.2807 21.7616 23.667 22.6942 23.667 23.6667V25.5C23.667 25.7431 23.7636 25.9763 23.9355 26.1482C24.1074 26.3201 24.3405 26.4167 24.5837 26.4167H26.417C26.6601 26.4167 26.8933 26.3201 27.0652 26.1482C27.2371 25.9763 27.3337 25.7431 27.3337 25.5V17.25C27.3337 16.7638 27.1405 16.2975 26.7967 15.9537C26.4529 15.6098 25.9866 15.4167 25.5003 15.4167Z" stroke="#4D0F26" stroke-width="1.83333" stroke-linecap="round" stroke-linejoin="round"/>
</svg>
